<svg id="b824a7e9-cfdf-41f0-bab7-ca4a436aafbf" data-name="Layer 1" xmlns="http://www.w3.org/2000/svg" width="865.76" height="682.89" viewBox="0 0 865.76 682.89"><path d="M274.71,332.79h253a25.58,25.58,0,0,1,25.58,25.58v5.2a25.58,25.58,0,0,1-25.58,25.58h-253a0,0,0,0,1,0,0V332.79a0,0,0,0,1,0,0Z" fill="#d6d6d6"/><path d="M263.33,318.85h273.2a41.65,41.65,0,0,1,41.65,41.65h0a41.66,41.66,0,0,1-41.65,41.66H263.33V387.34H527.06a25.11,25.11,0,0,0,25.11-25.1h0a25.11,25.11,0,0,0-25.11-25.11H263.33Z" fill="#ccc"/><path d="M263.33,337.13v-4.34H527.69a29.45,29.45,0,0,1,29.45,29.45h0a29.44,29.44,0,0,1-29.45,29.44H263.33v-4.34h264a25.22,25.22,0,0,0,25.23-25.23h0a25.23,25.23,0,0,0-25.25-25.23Z" opacity="0.2"/><path d="M304.92,415.16h253a25.58,25.58,0,0,1,25.58,25.58v5.2a25.58,25.58,0,0,1-25.58,25.58h-253a0,0,0,0,1,0,0V415.16a0,0,0,0,1,0,0Z" transform="translate(888.39 886.68) rotate(-180)" fill="#d6d6d6"/><path d="M594.84,485.46H321.65A41.66,41.66,0,0,1,280,443.81h0a41.66,41.66,0,0,1,41.66-41.65H594.84V417H331.11A25.11,25.11,0,0,0,306,442.08h0a25.11,25.11,0,0,0,25.1,25.11H594.84Z" fill="#bcbec0"/><path d="M594.84,467.19v4.33H330.48A29.44,29.44,0,0,1,301,442.08h0a29.45,29.45,0,0,1,29.44-29.45H594.84V417H330.9a25.24,25.24,0,0,0-25.24,25.23h0a25.22,25.22,0,0,0,25.26,25.23Z" opacity="0.2"/><path d="M258.18,498.28H545.63a28.22,28.22,0,0,1,28.22,28.22v5.74a28.22,28.22,0,0,1-28.22,28.22H258.18a0,0,0,0,1,0,0V498.28A0,0,0,0,1,258.18,498.28Z" transform="translate(832.03 1058.74) rotate(-180)" fill="#d6d6d6"/><path d="M585.77,575.84H274.91c-23,0-41.65-20.58-41.65-46h0c0-25.38,18.65-45.95,41.65-45.95H585.77v16.34H284.38c-13.87,0-25.11,12.4-25.11,27.7h0c0,15.3,11.24,27.71,25.11,27.71H585.77Z" fill="#ccc"/><path d="M585.77,555.68v4.78h-302c-16.26,0-29.44-14.55-29.44-32.49h0c0-17.94,13.18-32.48,29.44-32.48h302v4.78H284.16c-13.94,0-25.23,12.46-25.23,27.84h0c0,15.39,11.31,27.85,25.25,27.84Z" opacity="0.2"/><path d="M295.85,591.22H579.36a28.22,28.22,0,0,1,28.22,28.22v5.74a28.22,28.22,0,0,1-28.22,28.22H295.85a0,0,0,0,1,0,0V591.22a0,0,0,0,1,0,0Z" fill="#d6d6d6"/><path d="M280,575.84H590.85c23,0,41.66,20.57,41.66,45.95h0c0,25.39-18.65,46-41.66,46H280V651.41h301.4c13.86,0,25.11-12.41,25.11-27.7h0c0-15.3-11.25-27.71-25.11-27.71H280Z" fill="#bcbec0"/><path d="M280,596v-4.78H582c16.26,0,29.44,14.54,29.44,32.49h0c0,17.94-13.18,32.48-29.44,32.48H280v-4.78H581.61c13.93,0,25.23-12.47,25.23-27.84h0c0-15.39-11.31-27.85-25.26-27.84Z" opacity="0.2"/><path d="M486.06,163.17c-28.69-37-60.28-36.62-67.73-36-1.35.12-2.7.19-4.05.23-50.08,1.31-69.12,43.05-69.12,43.05v34.14h140.9Z" fill="#0071f2"/><path d="M322.22,170.08l1.45-4.45s64.91,3.51,91.52,25.54c0,0,25.17-27.09,88.39-31.79l4.7,6.25L414.89,198.4Z" fill="#d6d6d6"/><path d="M281.2,276.8s.48-21.68,101.5-23.49h65.6s75.36,4.7,88.53,6.57L417.44,322.32Z" fill="#2f2e41"/><path d="M281.2,276.8s.48-21.68,101.5-23.49h65.6s75.36,4.7,88.53,6.57L417.44,322.32Z" opacity="0.2"/><path d="M382.7,354.83l-10.17-2c-5.15,2.71-34.59,4.34-34.59,4.34-10.48,1.08-4.88,9.93-4.88,9.93s4.88,14.64,22,11.2l39.19-7.76Z" fill="#0071f2"/><path d="M454.28,370.34,495,385.2s9.15,2.39,14.81-3.92l6.32-7.84s2.83-4.53-4.14-7.6c0,0-12.2-3.51-23.74-5.69,0,0-8.49-1.74-13.29-6.32,0,0-2.19-5.32-11.76-3.75Z" fill="#0071f2"/><path d="M359.12,130.84s-3.9-16.57,4.81-28.23a45.19,45.19,0,0,0,3-4.4,124.58,124.58,0,0,0,10.62-24s4.25-45.29,25.12-48.83c0,0,21.59-10.26,36.8,8.85,0,0,15.22-2.48,20.17,32.55,0,0-.71,21.59,4.95,30.43,0,0,8.85,18.62,7.41,32.71a6.35,6.35,0,0,0-3.43-.54s.72-13.55-4.16-21.68c0,0,3.07,14.81,2,20.41,0,0-53.47-13.55-96.1.18l-.36-15.71h0a11,11,0,0,0-1.67,6.29l.4,10S363.15,128.86,359.12,130.84Z" fill="#2f2e41"/><path d="M400.62,111.33h32.15a0,0,0,0,1,0,0v20.81a14.59,14.59,0,0,1-14.59,14.59h-3a14.59,14.59,0,0,1-14.59-14.59V111.33a0,0,0,0,1,0,0Z" fill="#f9b499"/><path d="M428.8,44.5h-2.35c-12.1,24.38-41,40.28-41,40.28s4.94,34.14,29.75,34.86c0,0,22.46,3.43,30.59-31.25,0,0,6.28,3,9.58-7.07a14.77,14.77,0,0,0,.32-8.48c-.9-3.33-3.21-6.83-9-5.4C446.68,67.44,431.14,60.75,428.8,44.5Z" fill="#f9b499"/><path d="M397.37,78.46q2.79-1.81,5.41-3.82c1.86-1.17,3.65-2.43,5.39-3.76A67.78,67.78,0,0,0,417.8,62a52.77,52.77,0,0,0,4.07-5.14c.65-.88,1.21-1.82,1.8-2.73s1.12-1.88,1.61-2.86a43.52,43.52,0,0,0,2.62-6l.66-1.51.59-1.54.3-.77.26-.78.53-1.58a38.5,38.5,0,0,1-1.15,6.6,46,46,0,0,1-2.69,6.15c-.5,1-1.09,2-1.65,2.93s-1.18,1.89-1.84,2.79a55.54,55.54,0,0,1-4.16,5.26,69.6,69.6,0,0,1-9.81,9.07c-1.77,1.36-3.6,2.63-5.47,3.84A46.23,46.23,0,0,1,397.37,78.46Z" fill="#2f2e41"/><path d="M390.4,131.53a78.75,78.75,0,0,1,10.22-2.65s-2.85,15.63,15.76,17.86c0,0,17.54,0,16.39-18.73a67,67,0,0,1,9.12,2.27s-.85,19.13-26.44,19.49C415.45,149.77,394.2,150.31,390.4,131.53Z" opacity="0.2"/><path d="M313.92,173.86l3.6-3.78h4.7s53-1.67,93,21.09c0,0,47.57-28.26,97.78-25.33l2.89,4.24L432.77,198.4l-117-19.15Z" fill="#ccc"/><path d="M309.64,173.72l3,90.44s65.92,2,97.06,17.56h15.91s45.71-19.88,97.06-21.53l-2-90.11s-72.73,4.11-97.29,23.26H409.29S383.76,175.78,309.64,173.72Z" fill="#a7a9ac"/><path d="M390.38,198.69c-31.36-13.54-71-10.84-71.39-10.81l0-.63c.39,0,40.18-2.74,71.68,10.86Z" fill="#ccc"/><path d="M388.91,208.43c-21-11.39-69.45-11.52-69.94-11.52v-.63c.49,0,49.1.13,70.24,11.6Z" fill="#ccc"/><path d="M390.38,218.56c-29.57-12.11-71-10.11-71.39-10.09l0-.63c.42,0,42-2,71.67,10.14Z" fill="#ccc"/><path d="M436.56,216.64s44.26-15,73.52-14.27v-21s-49.31,1.26-74.78,15.17Z" fill="#ccc"/><polygon points="425.59 281.72 409.29 281.72 409.29 193.34 423.38 193.34 425.59 281.72" fill="#a7a9ac"/><polygon points="425.59 281.72 409.29 281.72 409.29 193.34 423.38 193.34 425.59 281.72" opacity="0.2"/><path d="M378.58,285.83l45.52,33.6c7.94,5.95,22.21,14.2,32.12,19.72a17.14,17.14,0,0,1,7,22.7c-.2.39-.4.77-.61,1.14A17.08,17.08,0,0,1,443,371L338.48,341.1a117.72,117.72,0,0,1-32.53-14,17.17,17.17,0,0,1-4.69-4.34L288.62,305.7c-9.14-13.44-10.1-23-7.1-29.69a16.89,16.89,0,0,1,14.79-9.77C311.41,265.58,351.65,266,378.58,285.83Z" fill="#2f2e41"/><path d="M383.28,347.6l73-59.24s30-27.82,71.53-28.18c0,0,30-3.25,32.16,10.83,0,0,6.14,18.55-22,48.84,0,0-21.39,12.58-29.62,15.83L394.11,372.17S379.66,363.86,383.28,347.6Z" fill="#2f2e41"/><path d="M310.79,198s-8.11,3-9.38,19.8a31.93,31.93,0,0,0,1.18,11.63c1.65,5.54,5.26,11.84,12.9,8.74L329,233a13.24,13.24,0,0,0,4.07-6.5,14.89,14.89,0,0,0,3.52-9.49s2.17-1.69,1.9-6.26c0,0,2.17-2.56,1.08-9.26,0,0-30.89,6.65-31.7,3.06C307.9,204.58,307.19,203.38,310.79,198Z" fill="#f9b499"/><path d="M521.24,187.25s7.14,6.49,0,7c0,0-24.18-1.23-28-2.78,0,0-1.61,6.31,0,7.66,0,0,0,7.59,2.56,7.86,0,0-.54,7.45,3.25,7.86a30.42,30.42,0,0,0,23.45,12.32s10.55-4.87,7.57-24.79C530.08,202.41,530.41,189.3,521.24,187.25Z" fill="#f9b499"/></svg>