<svg xmlns="http://www.w3.org/2000/svg" width="865.76" height="682.89" viewBox="0 0 865.76 682.89"><path d="M836,363.15c-.2,1.9-.43,3.78-.67,5.65-.1.76-.21,1.51-.3,2.26s-.25,1.73-.38,2.58l-.39,2.57c-.13.85-.27,1.7-.41,2.55s-.28,1.62-.42,2.42c-.09.52-.18,1-.28,1.55s-.21,1.16-.32,1.73-.23,1.23-.35,1.84c-.3,1.54-.61,3.06-.93,4.58-.06.28-.13.57-.18.85-.15.65-.29,1.31-.44,1.95-.18.81-.36,1.62-.55,2.42s-.37,1.6-.57,2.4-.38,1.59-.58,2.37c-.39,1.58-.79,3.14-1.21,4.69-.21.78-.42,1.55-.64,2.31-.41,1.53-.85,3.06-1.29,4.55-.23.75-.45,1.49-.67,2.23-1,3.19-2,6.29-3,9.32-.41,1.19-.82,2.36-1.23,3.52v0l-.54,1.51c-.37,1-.73,2-1.1,3-.18.48-.37,1-.55,1.46-.53,1.38-1.07,2.74-1.6,4.08l-1.3,3.17q-1.65,3.94-3.32,7.59l-.79,1.69q-.78,1.67-1.56,3.27c-.26.54-.53,1.07-.79,1.59-.49,1-1,1.93-1.45,2.86s-1.11,2.09-1.65,3.09l-.73,1.32-1.17,2.07c-.33.57-.66,1.12-1,1.66-1.05,1.77-2.09,3.42-3.1,4.93C767.13,515,734.65,526.2,691.37,526.2h-2.59l-2.37,0c-1.9,0-3.81-.09-5.74-.16l-2.51-.1-2.73-.13-2.75-.15-2.78-.17-.33,0L665,525.1l-1.25-.09-3.14-.25-3.17-.26-3.22-.28-3.25-.3-3.29-.3-4.36-.43c-16.24-1.59-33.93-3.57-53.42-5.25l-2.22-.19q-5.58-.48-11.36-.9l-2.32-.17-7.06-.49-2.38-.15c-1.6-.11-3.21-.2-4.83-.3l-4.89-.26c-1.1-.07-2.21-.12-3.33-.17l-3.82-.19-2.84-.11-2.54-.11q-3.88-.15-7.85-.26l-2.5-.07c-1.19,0-2.38-.07-3.58-.08-3.22-.08-6.47-.14-9.77-.17l-2.73,0h-2.74c-14.35,0-29.48.28-45.46,1.12-2.7.15-5.37.3-8,.47s-5.35.35-8,.54l-3.87.3c-3.74.3-7.42.62-11,1-1.23.12-2.44.23-3.65.36q-15.07,1.51-28.64,3.56l-2.82.43-2.61.4-3.18.52c-.72.11-1.44.23-2.15.36l-1.67.28q-3.13.52-6.21,1.1-6.21,1.14-12.12,2.37l-2.74.58q-2.92.61-5.77,1.26l-2.7.62q-5.78,1.34-11.24,2.75l-2.21.57-1.81.48c-.79.21-1.57.41-2.35.63l-1.93.52-1.61.45-2.5.71-2.47.71c-2.47.71-4.88,1.43-7.26,2.16l-2.36.74c-2.35.73-4.65,1.46-6.93,2.21l-2.25.75-2.24.75q-6,2-11.72,4.1c-1.07.39-2.14.77-3.2,1.17-2.35.86-4.67,1.73-6.95,2.59l-3.24,1.24-2,.76-2,.76c-2.77,1.07-5.5,2.15-8.18,3.22L275.23,558c-6.37,2.54-12.51,5-18.51,7.35L255,566c-1.82.71-3.62,1.39-5.4,2.07-3.89,1.47-7.74,2.87-11.59,4.2l-2,.68-2.5.83-1.78.58q-2.91.93-5.83,1.79l-1.34.39q-3.36,1-6.77,1.84l-2.07.51-1.35.32-1.43.33c-1.84.42-3.68.81-5.55,1.17l-1.49.29-1.41.25-.4.07-1.88.32-.65.11c-.59.09-1.17.19-1.77.27l-1,.15c-1.56.23-3.13.44-4.72.61h0l-1.94.21-2.46.24c-.66.06-1.32.12-2,.16l-1,.08-.46,0-1.48.09c-2.29.14-4.63.23-7,.27l-1.26,0h-2.13a196.93,196.93,0,0,1-26.45-1.84,153.85,153.85,0,0,1-16.5-1.88c-3.61-.61-7.08-1.34-10.44-2.18s-6.66-1.8-9.79-2.86c-3.65-1.22-7.12-2.57-10.45-4C39,543.81,29.34,476.54,29.34,476.54a238.46,238.46,0,0,1-1-26.74c0-.39,0-.79,0-1.19s0-.79,0-1.2c0-.64,0-1.28,0-1.94s0-1.2.05-1.8c0-.82.05-1.65.08-2.5,0-1.09.08-2.2.14-3.34,0-.37,0-.75.05-1.13,0-.15,0-.31,0-.47,0-.51.05-1,.08-1.56s0-1,.08-1.46.05-.8.07-1.2.05-.9.09-1.36c.06-1,.13-1.95.2-2.95l.06-.79.12-1.52.11-1.47.06-.59c0-.42.07-.85.11-1.28a3.42,3.42,0,0,1,0-.45c.05-.72.13-1.44.19-2.16s.13-1.26.19-1.9.1-1.07.16-1.62c.17-1.62.36-3.27.56-4.94.06-.56.13-1.12.2-1.68.09-.76.19-1.53.29-2.3s.21-1.61.32-2.42l.06-.41q.1-.85.24-1.74c.59-4.18,1.28-8.49,2.06-12.9.17-.94.34-1.9.52-2.85l.33-1.74c.1-.52.19-1,.3-1.56.18-.93.36-1.86.56-2.81.12-.62.25-1.25.39-1.87q1-4.77,2.16-9.67c.24-1,.5-2.09.77-3.15s.54-2.17.82-3.27c.36-1.42.74-2.84,1.13-4.27q1.51-5.58,3.27-11.29C75.24,246.58,163.93,122.57,412.13,111.77,788,93.07,848.4,247.74,836,363.15Z" fill="#0071f2"/><path d="M836,363.15c-.2,1.9-.43,3.78-.67,5.65-.1.76-.21,1.51-.3,2.26s-.25,1.73-.38,2.58l-.39,2.57c-.13.85-.27,1.7-.41,2.55s-.28,1.62-.42,2.42c-.09.52-.18,1-.28,1.55s-.21,1.16-.32,1.73-.23,1.23-.35,1.84c-.3,1.54-.61,3.06-.93,4.58-.06.28-.13.57-.18.85-.15.65-.29,1.31-.44,1.95-.18.81-.36,1.62-.55,2.42s-.37,1.6-.57,2.4-.38,1.59-.58,2.37c-.39,1.58-.79,3.14-1.21,4.69-.21.78-.42,1.55-.64,2.31-.41,1.53-.85,3.06-1.29,4.55-.23.75-.45,1.49-.67,2.23-1,3.19-2,6.29-3,9.32-.41,1.19-.82,2.36-1.23,3.52v0l-.54,1.51c-.37,1-.73,2-1.1,3-.18.48-.37,1-.55,1.46-.53,1.38-1.07,2.74-1.6,4.08l-1.3,3.17q-1.65,3.94-3.32,7.59l-.79,1.69q-.78,1.67-1.56,3.27c-.26.54-.53,1.07-.79,1.59-.49,1-1,1.93-1.45,2.86s-1.11,2.09-1.65,3.09l-.73,1.32-1.17,2.07c-.33.57-.66,1.12-1,1.66-1.05,1.77-2.09,3.42-3.1,4.93C767.13,515,734.65,526.2,691.37,526.2h-2.59l-2.37,0c-1.9,0-3.81-.09-5.74-.16l-2.51-.1-2.73-.13-2.75-.15-2.78-.17-.33,0L665,525.1l-1.25-.09-3.14-.25-3.17-.26-3.22-.28-3.25-.3-3.29-.3-4.36-.43c-16.24-1.59-33.93-3.57-53.42-5.25l-2.22-.19q-5.58-.48-11.36-.9l-2.32-.17-7.06-.49-2.38-.15c-1.6-.11-3.21-.2-4.83-.3l-4.89-.26c-1.1-.07-2.21-.12-3.33-.17l-3.82-.19-2.84-.11-2.54-.11q-3.88-.15-7.85-.26l-2.5-.07c-1.19,0-2.38-.07-3.58-.08-3.22-.08-6.47-.14-9.77-.17l-2.73,0h-2.74c-14.35,0-29.48.28-45.46,1.12-2.7.15-5.37.3-8,.47s-5.35.35-8,.54l-3.87.3c-3.74.3-7.42.62-11,1-1.23.12-2.44.23-3.65.36q-15.07,1.51-28.64,3.56l-2.82.43-2.61.4-3.18.52c-.72.11-1.44.23-2.15.36l-1.67.28q-3.13.52-6.21,1.1-6.21,1.14-12.12,2.37l-2.74.58q-2.92.61-5.77,1.26l-2.7.62q-5.78,1.34-11.24,2.75l-2.21.57-1.81.48c-.79.21-1.57.41-2.35.63l-1.93.52-1.61.45-2.5.71-2.47.71c-2.47.71-4.88,1.43-7.26,2.16l-2.36.74c-2.35.73-4.65,1.46-6.93,2.21l-2.25.75-2.24.75q-6,2-11.72,4.1c-1.07.39-2.14.77-3.2,1.17-2.35.86-4.67,1.73-6.95,2.59l-3.24,1.24-2,.76-2,.76c-2.77,1.07-5.5,2.15-8.18,3.22L275.23,558c-6.37,2.54-12.51,5-18.51,7.35L255,566c-1.82.71-3.62,1.39-5.4,2.07-3.89,1.47-7.74,2.87-11.59,4.2l-2,.68-2.5.83-1.78.58q-2.91.93-5.83,1.79l-1.34.39q-3.36,1-6.77,1.84l-2.07.51-1.35.32-1.43.33c-1.84.42-3.68.81-5.55,1.17l-1.49.29-1.41.25-.4.07-1.88.32-.65.11c-.59.09-1.17.19-1.77.27l-1,.15c-1.56.23-3.13.44-4.72.61h0l-1.94.21-2.46.24c-.66.06-1.32.12-2,.16l-1,.08-.46,0-1.48.09c-2.29.14-4.63.23-7,.27l-1.26,0h-2.13a196.93,196.93,0,0,1-26.45-1.84,153.85,153.85,0,0,1-16.5-1.88c-3.61-.61-7.08-1.34-10.44-2.18s-6.66-1.8-9.79-2.86c-3.65-1.22-7.12-2.57-10.45-4C39,543.81,29.34,476.54,29.34,476.54a238.46,238.46,0,0,1-1-26.74c0-.39,0-.79,0-1.19s0-.79,0-1.2c0-.64,0-1.28,0-1.94s0-1.2.05-1.8c0-.82.05-1.65.08-2.5,0-1.09.08-2.2.14-3.34,0-.37,0-.75.05-1.13,0-.15,0-.31,0-.47,0-.51.05-1,.08-1.56s0-1,.08-1.46.05-.8.07-1.2.05-.9.09-1.36c.06-1,.13-1.95.2-2.95l.06-.79.12-1.52.11-1.47.06-.59c0-.42.07-.85.11-1.28a3.42,3.42,0,0,1,0-.45c.05-.72.13-1.44.19-2.16s.13-1.26.19-1.9.1-1.07.16-1.62c.17-1.62.36-3.27.56-4.94.06-.56.13-1.12.2-1.68.09-.76.19-1.53.29-2.3s.21-1.61.32-2.42l.06-.41q.1-.85.24-1.74c.59-4.18,1.28-8.49,2.06-12.9.17-.94.34-1.9.52-2.85l.33-1.74c.1-.52.19-1,.3-1.56.18-.93.36-1.86.56-2.81.12-.62.25-1.25.39-1.87q1-4.77,2.16-9.67c.24-1,.5-2.09.77-3.15s.54-2.17.82-3.27c.36-1.42.74-2.84,1.13-4.27q1.51-5.58,3.27-11.29C75.24,246.58,163.93,122.57,412.13,111.77,788,93.07,848.4,247.74,836,363.15Z" fill="#fff" opacity="0.7"/><path d="M836,363.15c-.2,1.9-.43,3.78-.67,5.65-.1.76-.21,1.51-.3,2.26s-.25,1.73-.38,2.58l-.39,2.57c-.13.85-.27,1.7-.41,2.55s-.28,1.62-.42,2.42c-.09.52-.18,1-.28,1.55s-.21,1.16-.32,1.73-.23,1.23-.35,1.84c-.3,1.54-.61,3.06-.93,4.58-.06.28-.13.57-.18.85-.15.65-.29,1.31-.44,1.95-.18.81-.36,1.62-.55,2.42s-.37,1.6-.57,2.4-.38,1.59-.58,2.37c-.39,1.58-.79,3.14-1.21,4.69-.21.78-.42,1.55-.64,2.31-.41,1.53-.85,3.06-1.29,4.55-.23.75-.45,1.49-.67,2.23-1,3.19-2,6.29-3,9.32-.41,1.19-.82,2.36-1.23,3.52v0l-.54,1.51c-.36,1-.73,2-1.1,3-.18.48-.37,1-.55,1.46-.53,1.38-1.07,2.74-1.6,4.08-.43,1.07-.87,2.12-1.3,3.17q-1.65,3.94-3.32,7.59l-.79,1.69q-.78,1.67-1.56,3.27c-.26.54-.53,1.07-.79,1.59-.48,1-1,1.93-1.45,2.86s-1.11,2.09-1.65,3.09l-.73,1.32q-.59,1.06-1.17,2.07c-.33.57-.66,1.12-1,1.66-1.05,1.77-2.09,3.42-3.1,4.93C767.13,515,734.65,526.2,691.37,526.2h-2.59l-2.37,0c-1.9,0-3.81-.09-5.74-.16l-2.51-.1-2.73-.13-2.75-.15-2.78-.17-.33,0L665,525.1l-1.25-.09-3.14-.25-3.17-.26-3.22-.28-3.25-.3-3.29-.3-4.36-.43c-16.24-1.59-33.93-3.57-53.42-5.25l-2.22-.19q-5.58-.48-11.36-.9l-2.32-.17-7.06-.49-2.38-.15c-1.6-.11-3.21-.2-4.83-.3l-4.89-.26c-1.1-.07-2.21-.12-3.33-.17l-3.82-.19-2.84-.11-2.54-.11q-3.88-.15-7.85-.26l-2.5-.07c-1.19,0-2.38-.07-3.58-.08-3.22-.08-6.47-.14-9.77-.17l-2.73,0h-2.74c-14.35,0-29.48.28-45.46,1.12-2.7.15-5.37.3-8,.47s-5.35.35-8,.54l-3.87.3c-3.74.3-7.42.62-11,1-1.23.12-2.44.23-3.65.36q-15.07,1.51-28.64,3.56l-2.82.43-2.61.4-3.18.52c-.72.11-1.44.23-2.15.36l-1.67.28q-3.13.52-6.21,1.1-6.21,1.14-12.12,2.37l-2.74.58q-2.92.61-5.77,1.26l-2.7.62q-5.78,1.34-11.24,2.75l-2.21.57-1.81.48c-.79.21-1.57.41-2.35.63l-1.93.52-1.61.45-2.5.71-2.47.71c-2.47.71-4.88,1.43-7.26,2.16l-2.36.74c-2.35.73-4.65,1.46-6.93,2.21l-2.25.75-2.24.75q-6,2-11.72,4.1c-1.07.39-2.14.77-3.2,1.17-2.35.86-4.67,1.73-6.95,2.59l-3.24,1.24-2,.76-2,.76c-2.77,1.07-5.5,2.15-8.18,3.22L275.23,558c-6.37,2.54-12.51,5-18.51,7.35L255,566c-1.82.71-3.62,1.39-5.4,2.07-3.89,1.47-7.74,2.87-11.59,4.2l-2,.68-2.5.83-1.78.58q-2.91.93-5.83,1.79l-1.34.39q-3.36,1-6.77,1.84l-2.07.51-1.35.32-1.43.33c-1.84.42-3.68.81-5.55,1.17l-1.49.29-1.41.25-.4.07-1.88.32-.65.11c-.59.09-1.17.19-1.77.27l-1,.15c-1.56.23-3.13.44-4.72.61l-1.94.22-2.46.24c-.66.06-1.32.12-2,.16l-1,.08-.46,0-1.48.1c-2.29.14-4.63.23-7,.27l-1.26,0h-2.13a196.93,196.93,0,0,1-26.45-1.84,153.85,153.85,0,0,1-16.5-1.88c-3.61-.61-7.08-1.34-10.44-2.18s-6.66-1.8-9.79-2.86c-3.65-1.22-7.12-2.57-10.45-4C39,543.81,29.34,476.54,29.34,476.54a238.46,238.46,0,0,1-1-26.74c0-.39,0-.79,0-1.19s0-.79,0-1.2c0-.64,0-1.28,0-1.94s0-1.2.05-1.8c0-.82.05-1.65.08-2.5,0-1.09.08-2.2.14-3.34,0-.37,0-.75.05-1.13,0-.15,0-.31,0-.47,0-.51.05-1,.08-1.56s0-1,.08-1.46.05-.8.07-1.2.05-.9.09-1.36c.06-1,.13-1.95.2-2.95l.06-.79.12-1.52.11-1.47.06-.59c0-.42.07-.85.11-1.28a3.42,3.42,0,0,1,0-.45c.05-.72.13-1.44.19-2.16s.13-1.26.19-1.9.1-1.07.16-1.62c.17-1.62.36-3.27.56-4.94.06-.56.13-1.12.2-1.68.09-.76.19-1.53.29-2.3s.21-1.61.32-2.42l.06-.41q.1-.85.24-1.74c.59-4.18,1.28-8.49,2.06-12.9.17-.94.34-1.9.52-2.85l.33-1.74c.1-.52.19-1,.3-1.56.18-.93.36-1.86.56-2.81.12-.62.25-1.25.39-1.87q1-4.77,2.16-9.67c.24-1,.5-2.09.77-3.15s.54-2.17.82-3.27c.36-1.42.74-2.84,1.13-4.27q1.51-5.58,3.27-11.29c12.57-40.83,74.83-40.41,115.55-27.49,26.72,8.49,50.48,26.47,78.32,29.76,42.83,5.08,80.56-25.11,118.93-44.8A263.93,263.93,0,0,1,528.58,280.9c48.93,9.93,94.64,33.78,144.24,39.52,28.48,3.29,57.36.47,85.9,3.25S818,340.78,836,363.15Z" fill="#fff" opacity="0.1"/><path d="M173.16,357.46s14.35,22.84,30.67,15.66c0,0,46.34-20.23,63.3-33.28,0,0,12-15.47,22.68-14.73a.66.66,0,0,1,.26,1.25,15.14,15.14,0,0,0-4.29,3.1,1.38,1.38,0,0,0,.76,2.24c5.74,1.23,22.8,6.12,14,19.25a166.72,166.72,0,0,0-16.68-2.33,9,9,0,0,0-5.68,1.31c-3.75,2.33-10.44,6.89-13.63,11.45l-67.87,27.41L162.71,377Z" fill="#f7a48b"/><path d="M153.58,332.66s11.74,17,19.58,24.8c0,0,.76,7-6.2,13.38,0,0-9-10.54-21-25.67Z" fill="#0071f2"/><path d="M153.58,332.66s11.74,17,19.58,24.8c0,0,.76,7-6.2,13.38,0,0-9-10.54-21-25.67Z" opacity="0.3"/><polygon points="564.33 299.37 556.22 308.13 573.01 328.15 583.15 338.29 589.37 334.72 591.09 333.11 564.33 299.37" fill="#0071f2"/><polygon points="564.33 299.37 556.22 308.13 573.01 328.15 583.15 338.29 589.37 334.72 591.09 333.11 564.33 299.37" opacity="0.2"/><polygon points="591.09 333.11 563.09 302.3 565.94 297.54 591.88 330.11 591.09 333.11" opacity="0.2"/><polygon points="562.47 297.02 582.39 284.55 598.73 316.46 596.32 324.25 593.32 330.37 591.09 333.11 562.47 297.02" fill="#0071f2"/><polygon points="277.03 357.27 276.71 344.11 286 347.19 294.22 342.64 294.22 355.42 286.96 358.44 277.03 357.27" fill="#0071f2"/><polygon points="286.39 358.37 277.03 357.27 276.71 344.11 286 347.19 286.39 358.37" fill="#fff" opacity="0.2"/><polygon points="276.71 344.11 285.85 341.1 294.22 342.64 286 347.19 276.71 344.11" fill="#fff"/><ellipse cx="285.67" cy="343.77" rx="1.69" ry="0.37" fill="#2f2e41"/><circle cx="279.71" cy="353.34" r="1.02" fill="#2f2e41"/><path d="M284.42,350.19a1,1,0,0,1-2,0,1,1,0,1,1,2,0Z" fill="#2f2e41"/><path d="M293,347.53a1,1,0,1,1-1-.95A1,1,0,0,1,293,347.53Z" fill="#2f2e41"/><path d="M293.55,351.32a1,1,0,0,1-1.9,0,1,1,0,1,1,1.9,0Z" fill="#2f2e41"/><path d="M290,352.85a1,1,0,1,1-.95-1A.95.95,0,0,1,290,352.85Z" fill="#2f2e41"/><path d="M289.61,349.42a.95.95,0,1,1-.94-.95A.94.94,0,0,1,289.61,349.42Z" fill="#2f2e41"/><path d="M718.1,517.36s-20.39,3.91-48.2,8.08c-23.14-1.49-49.35-4.85-80-7.5l-8.84-3.85,113-40.45h0L759,460.88S760.52,513.44,718.1,517.36Z" fill="#2f2e41"/><path d="M694,473.64c-.39.6-23.14,35.61-77.87,46.79-8.38-.85-17.12-1.7-26.26-2.49l-8.84-3.85Z" opacity="0.2"/><path d="M713.32,288.28H719a43.51,43.51,0,0,1,43.51,43.51V450.89a22.74,22.74,0,0,1-22.74,22.74H692.55a22.74,22.74,0,0,1-22.74-22.74V331.8A43.51,43.51,0,0,1,713.32,288.28Z" fill="#0071f2"/><path d="M111.16,558.47v16.66c-3.65-1.22-7.12-2.57-10.45-4V558.47Z" fill="#c2c4c6"/><path d="M131.39,558.47v21.7c-3.61-.61-7.08-1.34-10.44-2.18V558.47Z" fill="#c2c4c6"/><path d="M186.21,558.47v25l-1.48.09c-2.29.14-4.63.23-7,.27l-1.26,0h-.7V558.47Z" fill="#c2c4c6"/><path d="M204.48,558.47v22.76l-.4.07-1.88.32-.65.11c-.59.09-1.17.19-1.77.27l-1,.15c-1.56.23-3.13.44-4.72.61V558.47Z" fill="#c2c4c6"/><path d="M92.88,525s-12.4,13.89,2,32.17c0,0,9.14,11.09,35.24,9.13H197.3s22.47-1.5,23-27.51l-4.05-1.85Z" fill="#9ea0a3"/><path d="M99,519.74s-11.32,4.14-5.45,15.89c0,0,3.92,10.44,26.76,12.4,0,0,24.57,3.78,68.15,3.29a36.27,36.27,0,0,0,6.32-.61c6.54-1.21,19.08-4.69,21.47-13.77Z" fill="#e1e1e2"/><path d="M286.35,553.58c-13.11,5.1-25.12,10.08-36.76,14.47l-2.42-22.16a9,9,0,0,0-9.27-8l-90.2,3c-58.08-.65-61.34-52.21-61.34-52.21L165.48,477l119.93,41Z" fill="#2f2e41"/><path d="M119.68,483.63s-2,33.73,26.72,32.42l65.91-2.61s35.43,16.35,73.84,8.5l-.74-3.93L165.48,477Z" opacity="0.2"/><path d="M141.6,494.51H94.41a13.31,13.31,0,0,1-13.3-13.91l6.3-138.54a35.49,35.49,0,0,1,35.79-33.87h0a35.5,35.5,0,0,1,35.07,33.25l8,126.79A24.72,24.72,0,0,1,141.6,494.51Z" fill="#0071f2"/><ellipse cx="426.05" cy="451.77" rx="278.35" ry="80.6" fill="#2e3135"/><path d="M590.84,344.41s21.76,42.93,49.09,54a12,12,0,0,0,9.76-.33c5.34-2.64,13.69-9,20.18-24.17l-.06-39.27s1.63-22.52,15.75-34.39c0,0-16.4-.2-26.19,33.74,0,0-7.06,23.83-13.93,32.3a5,5,0,0,1-7.09.55l-32.5-28.28S604.55,349,590.84,344.41Z" fill="#0071f2"/><path d="M590.84,344.41s21.76,42.93,49.09,54a12,12,0,0,0,9.76-.33c5.34-2.64,13.69-9,20.18-24.17l-.06-39.27s1.63-22.52,15.75-34.39c0,0-16.4-.2-26.19,33.74,0,0-7.06,23.83-13.93,32.3a5,5,0,0,1-7.09.55l-32.5-28.28S604.55,349,590.84,344.41Z" opacity="0.2"/><path d="M151,288.35l-3.59-38.25-15,5.6-2-.62-19.25,11.5v43.53a12.65,12.65,0,0,0,12.4,12.44h0A12.66,12.66,0,0,0,136,310.11V302a13.35,13.35,0,0,1,9.26-12.59A20.27,20.27,0,0,1,151,288.35Z" fill="#f9b499"/><path d="M128.92,275.84s-4.06,20.27,7,28.76c0,0,0-13.05,15-14.36Z" fill="#f7a48b"/><path d="M214.27,168.85a33.32,33.32,0,0,0,9.2-3.82,3.32,3.32,0,0,1,4.94,1.73c3.66,10.84,7.59,39.52-26.21,49.41,0,0,1.63-8.44-1.31-14.17C200.89,202,214.6,195.94,214.27,168.85Z" fill="#2f2e41"/><path d="M214.27,168.85a33.32,33.32,0,0,0,9.2-3.82,3.32,3.32,0,0,1,4.94,1.73c3.66,10.84,7.59,39.52-26.21,49.41,0,0,1.63-8.44-1.31-14.17C200.89,202,214.6,195.94,214.27,168.85Z" opacity="0.2"/><path d="M464.88,314.39V364H378.73v-49.6a43,43,0,0,1,7.28-24A43.94,43.94,0,0,1,422.13,271c11.9,0,22.34,5.15,30.14,12.94a43.07,43.07,0,0,1,12.61,30.46Z" fill="#0071f2"/><path d="M369.6,308.51s-11.75-15-7.18-41.11c0,0,4.57-12.4,1.3-34.59,0,0-26.75-9.79-30-54.17,0,0,0-66.57,33.29-63.3a16.73,16.73,0,0,1,14.36,9.78,10.65,10.65,0,0,1,7.17-2.61s19.58-38.5,66.57-17c0,0,20.23,7.17,33.94,26.1l6.53-1.3s16.31-15,28.71,8.48c0,0,22.84,62-8.48,88.76a28.9,28.9,0,0,1-15,7.18l-3.92,33.93s2.24,42.44-16.5,47a85.24,85.24,0,0,1-11.14-12.92s-9.38-12.67-13.71-15.22c0,0-12.07-15.87-31-16.39A43.15,43.15,0,0,0,386,290.42a64.32,64.32,0,0,0-9.21,10.13,53.14,53.14,0,0,1-4.92,5.68Z" fill="#2f2e41"/><path d="M434.86,249.12v24.8a11.75,11.75,0,1,1-23.49,0v-24.8Z" fill="#f9b499"/><path d="M411.37,249.12v3.46a11.75,11.75,0,0,0,11.75,11.75h0a11.75,11.75,0,0,0,11.75-11.75v-3.46Z" fill="#f7a48b"/><path d="M534.06,292.85c-18.27,39.81-42.42,50.91-42.42,50.91-6.77,2.25-14.74-2.75-20.27-7.4a63.48,63.48,0,0,1-6.81-6.64l.32-2.15V314.39a42.9,42.9,0,0,0-9.37-26.83l-1.4-1.56c4.81,3,16.67,18.63,19.8,22.8l.76,1C484.46,321.57,489,317,489,317c16.32-10.44,35.89-33.29,35.89-33.29C526.23,294.16,534.06,292.85,534.06,292.85Z" fill="#0071f2"/><path d="M386,290.42a43,43,0,0,0-7.28,24v15.36a29.26,29.26,0,0,1-4.69,5.37c-5.06,4.56-13.62,8.85-23.37-.5,0,0-26.76-24.15-38.5-45.68,0,0,11.74,2.61,13.7-5.23,0,0,18.93,22.85,32.63,28.72,0,0,4.81,2.88,15.68-9.12l.31-.34S382.08,293.22,386,290.42Z" fill="#0071f2"/><path d="M524.92,283.71s.15-.22.45-.69a46,46,0,0,0,4.62-9.8c1.5-4.43,4.54-11.33,9.5-14a1.19,1.19,0,0,1,1.63,1.58c-1.78,3.5-4.18,9.37-.53,9.82,0,0,5.22-.65,9.79-12.4l2.35-4.7a1.28,1.28,0,0,1,2.41.34c1.31,7.54,1.69,25.8-21.08,39C534.06,292.85,525.9,294.48,524.92,283.71Z" fill="#f9b499"/><path d="M312.17,288.94s-26.62-17.56-17.08-40a2.53,2.53,0,0,1,4.67,0c2.85,6.93,8.28,18.33,12.41,16.49,0,0,3.26.65,2.61-5.22l-.39-5a1.06,1.06,0,0,1,1.94-.66c1.88,2.95,4.45,8.43,5.63,17.42,0,0,1.3,8.48,3.91,11.74C325.87,283.71,326.52,290.89,312.17,288.94Z" fill="#f9b499"/><path d="M381.35,125.12s-9.79,5.23-13.06,20.24c0,0-5.22,1.3-4.57-7.84C363.72,137.52,364.38,116,381.35,125.12Z" fill="#0071f2"/><path d="M472.71,252.39s-11.5,31.1-8.68,43.94A54.37,54.37,0,0,0,454.11,286s-5.87-7.83-19.25-12.95V257.9c2.08-.22,25.71-3.2,37.7-30.16C472.56,227.74,476.63,240,472.71,252.39Z" opacity="0.2"/><path d="M368.29,145.36s-10.44,32.63-6.52,74.4c0,0-14.36-17.62-8.49-53.52,0,0,2-19.58,10.44-28.72C363.72,137.52,362.42,146.66,368.29,145.36Z" opacity="0.2"/><path d="M498.49,147s10,33.61,6.1,75.38c0,0,14.35-17.62,8.48-53.52,0,0-2.83-19.9-11.31-29C501.76,139.81,503.71,146.34,498.49,147Z" opacity="0.2"/><path d="M427.25,299.89l5.65,4.71h2l5.66-5.19a1.13,1.13,0,0,1,1.88.94l-.81,8.14a1.13,1.13,0,0,1-1.8.79l-4.93-2.72h-2L427.53,310a1.25,1.25,0,0,1-1.91-1l-.41-8.08A1.25,1.25,0,0,1,427.25,299.89Z" fill="#2f2e41"/><rect x="432.9" y="304.6" width="1.96" height="1.96" opacity="0.2"/><ellipse cx="426.05" cy="441.98" rx="278.35" ry="80.6" fill="#3f4347"/><rect x="124.86" y="176.68" width="78.97" height="122.04" rx="37.08" fill="#f9b499"/><path d="M126.17,323.52s-11.09,1-8.41,20.71a55.28,55.28,0,0,0,6.63,19.5c4.78,8.54,13.69,21.73,26.58,29.63,0,0,13.7-.66,18.27-21.54,0,0-19.4-20-27-32.5a12.1,12.1,0,0,1-.76-1.53C140.16,334.45,134.16,321.24,126.17,323.52Z" fill="#0071f2"/><path d="M126.17,323.52s-11.09,1-8.41,20.71a55.28,55.28,0,0,0,6.63,19.5c4.78,8.54,13.69,21.73,26.58,29.63,0,0,13.7-.66,18.27-21.54,0,0-19.4-20-27-32.5a12.1,12.1,0,0,1-.76-1.53C140.16,334.45,134.16,321.24,126.17,323.52Z" opacity="0.2"/><path d="M213.76,182.79c-3.16,14.49-15.17,30.49-54.31,25.22a52.77,52.77,0,0,1-19.59,24h0l-14.79,22s-.86,33-14.57,42.77l-15-24.15s-73.75-31.33-37.2-75.71c0,0,.66-60.69,68.53-62,0,0,24-1.16,49.22,15.86a65.89,65.89,0,0,1,5.8,4.48c3.5,3,13.09,9.58,28,7.71a4.07,4.07,0,0,1,4.52,3.54A49.42,49.42,0,0,1,213.76,182.79Z" fill="#2f2e41"/><path d="M213.76,182.79c-3.16,14.49-15.17,30.49-54.31,25.22a52.77,52.77,0,0,1-19.59,24c.31-.47,12.34-19,6.54-37.73C146.4,194.3,178.7,220.77,213.76,182.79Z" opacity="0.1"/><path d="M725.28,266.75v31.32a15.66,15.66,0,1,1-31.32,0V266.75Z" fill="#f9b499"/><path d="M623.47,429.25s-32.22-.57-48,19.89a2.57,2.57,0,0,0,2.26,4.11,103.78,103.78,0,0,0,18.93-3.47,29.79,29.79,0,0,1,7.21-1l21.86-.37S615.31,440.67,623.47,429.25Z" fill="#f9b499"/><path d="M489,131.65s7.83,7.83,9.79,17c0,0,4.57-1.31,3.26-7.83C502.08,140.79,499.47,123.17,489,131.65Z" fill="#0071f2"/><rect x="372.86" y="123.82" width="103.12" height="135.09" rx="48.42" fill="#f9b499"/><path d="M472.71,252.39a46.92,46.92,0,0,0,.24-23.25,27.26,27.26,0,0,0-13-16.92c-19.34-11-29-33.58-29-33.58-66.57-10.44-42.43-56.13-42.43-56.13L446,108.16s23.49,30,26.75,32,18.93,77,18.93,77Z" fill="#2f2e41"/><path d="M388.52,122.51s-13.7,41.12,34.59,47c0,0-7.83-17,2.61-26.75,0,0-3.26,27.41,11.75,40.46l22.19,22.19s16,10.76,12.9,22.35c0,0-1.86-8.72-12.6-15.53,0,0-16-6.82-29-33.58C431,178.64,367,172.11,388.52,122.51Z" opacity="0.2"/><path d="M388.52,122.51s-7.47,12.08-2.76,29.53c0,0-5.07,12.24-3.11,23.34a60.57,60.57,0,0,1-4.57,17s-5.87,12.4-2.61,33.28l-7.83-3.26.65-24.15,3.27-49.6Z" fill="#2f2e41"/><path d="M386,290.42a43,43,0,0,0-7.28,24v15.36a29.26,29.26,0,0,1-4.69,5.37,118.58,118.58,0,0,1,.14-31.81l.31-.34S382.08,293.22,386,290.42Z" opacity="0.2"/><path d="M473.91,308.8l-2.54,27.56a63.48,63.48,0,0,1-6.81-6.64l.32-2.15V314.39a42.9,42.9,0,0,0-9.37-26.83l-1.4-1.56C458.92,289,470.78,304.63,473.91,308.8Z" opacity="0.2"/><ellipse cx="130.41" cy="241.29" rx="11.42" ry="13.71" fill="#f9b499"/><path d="M151,393.36s26.1,22.19,63.3,8.48c0,0,26.67-10.91,47.88-29.22a10.28,10.28,0,0,1,5.43-2.43c7.92-1,28.88-5.05,34.14-19.25,0,0,3.27-9.14-4.56-2,0,0-13.06,7.71-22.76,5a3.3,3.3,0,0,1-2.14-1.92,9.29,9.29,0,0,1,2-10.57,1,1,0,0,0-1-1.73c-3,.7-7.78,3.79-12.62,15.12a14.87,14.87,0,0,1-7.5,7.72c-14.84,6.76-55.41,24.15-67.59,18.33,0,0-7.84-2-16.32-9.14C169.24,371.82,166.3,389.77,151,393.36Z" fill="#f9b499"/><path d="M278.88,358.44a.33.33,0,0,1,0-.65c.17,0,16.91-2,23.28-10.32a.33.33,0,0,1,.52.4c-6.54,8.5-23,10.49-23.72,10.57Z" fill="#f7a48b"/><path d="M280.84,362.36a.32.32,0,0,1-.32-.28.32.32,0,0,1,.27-.37c.1,0,10.55-1.73,18.5-7.63a.33.33,0,1,1,.39.53c-8.08,6-18.68,7.73-18.79,7.74Z" fill="#f7a48b"/><path d="M282.14,365a.33.33,0,0,1-.32-.3.32.32,0,0,1,.3-.35,35.78,35.78,0,0,0,11.78-3.81.32.32,0,0,1,.44.13.33.33,0,0,1-.14.45,36.44,36.44,0,0,1-12,3.88Z" fill="#f7a48b"/><path d="M725.28,266.75v6.1c-8.42,10.83-25.22,17-31.32,19V266.75Z" fill="#f7a48b"/><rect x="651.54" y="152.54" width="88.11" height="129.87" rx="41.37" fill="#f9b499"/><path d="M785.32,206.7c-2.35,60.74-60,75.06-60,75.06l-.28-9.67c13.42-14.89,13.92-24.15,13.92-24.15l5.94-5.34-5-15.12V197.74c-15.44,10-27.64,5-27.64,5-13.05-6.53-1.31-20.23-1.31-20.23-45.68,22.84-46.33-1.31-46.33-1.31-7.18,4.57-7.83,21.54-7.83,21.54a49.87,49.87,0,0,1-5,15.13,75.93,75.93,0,0,1-9.31-38s-6.27-3.14-7.14-11.84c-.44-4.48.54-10.43,4.53-18.19,0,0,15.66-34.58,87.45-21.53C727.24,128.39,787.94,139.48,785.32,206.7Z" fill="#2f2e41"/><path d="M739.87,227.48V197.74c-15.44,10-27.64,5-27.64,5-13.05-6.53-1.31-20.23-1.31-20.23-45.68,22.84-46.33-1.31-46.33-1.31-7.18,4.57-7.83,21.54-7.83,21.54a49.87,49.87,0,0,1-5,15.13,75.93,75.93,0,0,1-9.31-38s-6.27-3.14-7.14-11.84c1.92,2.89,7.88,9.14,18.89-1.87,0,0,17-18.25,31.3-20.88-.59.32-17.36,9.22-21.61,20.87a12.85,12.85,0,0,0,8.29,16.59c6.48,2.07,17.58,3.05,33.57-4.18,0,0,14-9.44,23-12.22-.7.5-30,21.48-11.9,31.8,0,0,4.57,4.57,26.1-3.26C742.9,195,747.28,209.75,739.87,227.48Z" opacity="0.2"/><ellipse cx="744.21" cy="236.72" rx="12.4" ry="10.44" transform="translate(212.71 808.91) rotate(-64.76)" fill="#f9b499"/><path d="M741.6,309.17s11.09,4.57,4.57,33.28c0,0-13.06,74.4-45,82.23,0,0-48.95,20.23-73.1,25.46,0,0-16.32-9.79-3.26-22.19l57.73-18.31s11.45-3.23,18-19.55l22.84-62.65S728.55,304,741.6,309.17Z" fill="#0071f2"/><path d="M741.6,309.17s11.09,4.57,4.57,33.28c0,0-13.06,74.4-45,82.23,0,0-48.95,20.23-73.1,25.46,0,0-16.32-9.79-3.26-22.19l57.73-18.31s11.45-3.23,18-19.55l22.84-62.65S728.55,304,741.6,309.17Z" opacity="0.2"/><path d="M581.7,336.58s1.31,6.52,9.14,7.83c0,0,12.4,5.22,15-5.87,0,0-3.26-.66-2.61-9.14,0,0,4.57-24.15-9.79-22.19,0,0-15,2-11.09,9.79,0,0,1.6,2.14,5.79-1.34a5.29,5.29,0,0,1,5.47-.81c1.66.73,3,2.39,2.44,6.06C596.06,320.91,594.1,334.62,581.7,336.58Z" fill="#f9b499"/><polygon points="561.56 404.79 571.53 414.09 598.89 400.04 589.09 391.75 561.56 404.79" fill="#e1e1e2"/><path d="M586.62,401.9c-.34-1.64-3.43-2.39-6.91-1.68s-6,2.62-5.69,4.26,3.43,2.4,6.91,1.68S587,403.54,586.62,401.9Z" fill="#9ea0a3"/><polygon points="550.3 395.2 558.2 406.31 587.83 398.04 579.88 387.95 550.3 395.2" fill="#c2c4c6"/><path d="M576.62,397.35c0-1.67-2.88-3-6.43-3s-6.43,1.36-6.43,3,2.88,3,6.43,3S576.62,399,576.62,397.35Z" fill="#9ea0a3"/><polygon points="533.93 381.52 321.12 381.52 255.21 495.19 573.97 495.19 533.93 381.52" fill="#fff"/><polygon points="384.47 381.52 355.08 381.52 349.99 396.27 380.76 396.27 384.47 381.52" fill="#0071f2"/><polygon points="384.47 381.52 355.08 381.52 349.99 396.27 380.76 396.27 384.47 381.52" fill="#fff" opacity="0.5"/><polygon points="533.93 381.52 501.19 381.52 501.19 395.48 538.85 395.48 533.93 381.52" fill="#0071f2"/><polygon points="501.19 443.59 555.8 443.59 546.23 416.43 501.19 416.43 501.19 443.59" fill="#2f2e41"/><polygon points="303.37 495.19 314.6 470.56 269.49 470.56 255.21 495.19 303.37 495.19" fill="#0071f2"/><polygon points="333.59 444.17 284.79 444.17 267.2 474.51 333.59 474.51 333.59 444.17" fill="#2f2e41"/><polygon points="395.95 495.19 443.89 495.19 445.46 469.74 400.04 469.74 395.95 495.19" fill="#0071f2"/><polygon points="533.5 495.19 573.97 495.19 566.99 475.38 528.65 475.38 533.5 495.19" fill="#2f2e41"/><polygon points="507.55 394.75 505.17 381.52 472.21 381.52 474.03 394.61 507.55 394.75" fill="#2f2e41"/><polygon points="442.43 394.75 442.19 381.52 416.83 381.52 414.5 395.48 442.43 394.75" fill="#2f2e41"/><polygon points="356.72 381.52 321.12 381.52 313.52 394.63 350.54 394.75 356.72 381.52" fill="#2f2e41"/><polygon points="539.88 388.82 546.91 400.5 577.08 394.5 569.93 383.84 539.88 388.82" fill="#e1e1e2"/><polygon points="444.56 464.39 444.56 495.19 487.47 495.19 484.72 464.39 444.56 464.39" fill="#0071f2"/><polygon points="444.56 464.39 444.56 495.19 487.47 495.19 484.72 464.39 444.56 464.39" fill="#fff" opacity="0.5"/><polygon points="358.73 463.82 351.45 495.19 394.42 495.19 401.43 463.82 358.73 463.82" fill="#0071f2"/><polygon points="358.73 463.82 351.45 495.19 394.42 495.19 401.43 463.82 358.73 463.82" fill="#fff" opacity="0.5"/><polygon points="357.03 381.52 356.61 381.52 301.11 495.19 304.63 495.19 357.03 381.52" fill="#e1e1e2"/><polygon points="384.99 381.52 384.56 381.52 348.87 495.19 352.38 495.19 384.99 381.52" fill="#e1e1e2"/><polygon points="417.25 381.52 416.83 381.52 394.04 495.19 397.56 495.19 417.25 381.52" fill="#e1e1e2"/><polygon points="532.18 495.19 535.29 495.19 504.97 381.52 503.74 381.52 532.18 495.19" fill="#e1e1e2"/><polygon points="485.19 495.19 488.31 495.19 472.78 381.52 471.55 381.52 485.19 495.19" fill="#e1e1e2"/><polygon points="442.54 495.19 445.66 495.19 443.19 381.52 441.96 381.52 442.54 495.19" fill="#e1e1e2"/><polygon points="566.71 474.56 267.17 474.56 265.86 476.82 567.5 476.82 566.71 474.56" fill="#e1e1e2"/><polygon points="538.41 394.23 313.75 394.23 312.44 396.49 539.21 396.49 538.41 394.23" fill="#e1e1e2"/><polygon points="545.84 415.32 301.52 415.32 300.21 417.58 546.64 417.58 545.84 415.32" fill="#e1e1e2"/><polygon points="555.51 442.77 285.6 442.77 284.29 445.03 556.31 445.03 555.51 442.77" fill="#e1e1e2"/><polygon points="507.72 394.61 350.41 394.61 310.11 475.95 528.9 475.95 507.72 394.61" fill="#e1e1e2"/><polygon points="199.67 467.55 215.4 481.36 245.35 463.26 226.63 451.96 199.67 467.55" fill="#c2c4c6"/><polygon points="216.79 473.05 234.18 484.69 261.51 462.85 238.5 452.77 216.79 473.05" fill="#e1e1e2"/><polygon points="505.2 395.77 352.38 395.77 313.23 474.8 525.78 474.8 505.2 395.77" fill="#fff"/><path d="M519.91,485.63c0-3.51-4.73-6.35-10.48-6.35s-10.37,2.84-10.33,6.35,4.73,6.36,10.48,6.36S520,489.14,519.91,485.63Z" fill="#2f2e41"/><ellipse cx="326.73" cy="405.73" rx="8.22" ry="4.74" transform="translate(-28.77 24.96) rotate(-4.19)" fill="#0071f2"/><path d="M317.5,483.22c-.15,0-.22,0-.2-.06a.15.15,0,0,1,0-.16,2.18,2.18,0,0,1,.29-.68,1.5,1.5,0,0,1,.62-.25,18.84,18.84,0,0,0,4.6-.81,3,3,0,0,1,.53-.06c.31,0,.44.08.41.18-.26.67-.45,1.07-.66,1.59l-.58,1.22-.35.93-.24.82c-.06.21-.19.59-.4,1.17a16,16,0,0,0-.75,2.43,8.39,8.39,0,0,1,2.35.18l-.15.58c-.05.18-.25.28-.61.26-.67,0-1.15,0-1.47-.05s-.69,0-1.12-.05l-2.65.07h-.79c-.47,0-1,0-1.63,0-.14,0-.19-.13-.16-.38,0,0,0-.09,0-.12a.47.47,0,0,1,.37-.34c.92-.08,1.71-.17,2.36-.26s1-.1,1.11-.3a4.86,4.86,0,0,0,.23-.57c.06-.17.16-.42.26-.75l.45-1.2a8.91,8.91,0,0,0,.43-1.25c.08-.23.14-.44.23-.66s.19-.46.27-.68l.55-1.29-2.55.37C317.92,483.18,317.66,483.22,317.5,483.22Z" fill="#2f2e41"/><path d="M326.39,490.27a1.55,1.55,0,0,1-.77-.85,3.06,3.06,0,0,1-.3-1.26,12.5,12.5,0,0,1,.78-2.57,7.53,7.53,0,0,1,2.17-3.43,5.35,5.35,0,0,1,1.81-.88,11.68,11.68,0,0,1,2.78-.3c1.45.14,2.3.49,2.57,1a2.62,2.62,0,0,1,.17,1.77,20.88,20.88,0,0,1-.69,2.17,12.3,12.3,0,0,1-1.12,2.27c-.84,1.37-2.67,2.29-5.09,2.29A9.38,9.38,0,0,1,326.39,490.27Zm4.53-8.24a3.8,3.8,0,0,0-1.43.78,2.6,2.6,0,0,0-.76,1c-.16.42-.34,1-.63,1.78l-.44,1.29c-.23.73-.22,1.24.06,1.54s.51.57.7.82.62.38,1.25.38a4.89,4.89,0,0,0,2.75-1.11,2.79,2.79,0,0,0,.92-1.26c.23-.61.37-1.08.48-1.37.21-.5.39-.94.54-1.33a6.14,6.14,0,0,0,.35-1.17,2,2,0,0,0,0-1.21.94.94,0,0,0-.89-.46c-.22,0-.43,0-.68,0l-.7,0A4.91,4.91,0,0,0,330.92,482Zm1.22,3.87c-.12.31-.75.57-1.26.57s-.9-.24-.7-.77a1.16,1.16,0,0,1,1.24-.67C332.38,485,332.26,485.58,332.14,485.9Z" fill="#2f2e41"/><path d="M336.27,489.88a1.73,1.73,0,0,1-.72-1.66,10.24,10.24,0,0,1,.6-2.27,21,21,0,0,1,.94-2.17,6.31,6.31,0,0,1,1.53-1.86,5.08,5.08,0,0,1,3.31-.94c2.32,0,3.25.38,3.69,1.18s.11,2.1-.39,3.43a19.72,19.72,0,0,1-1,2.23c-.86,1.65-2.66,2.64-5.26,2.69A4.59,4.59,0,0,1,336.27,489.88Zm3.82-7.41a5,5,0,0,0-1.09,1.21,11.92,11.92,0,0,0-1.06,2.24c-.11.28-.22.69-.36,1.21a3.09,3.09,0,0,0-.06,1.37,1.7,1.7,0,0,0,1.76,1.16,3.65,3.65,0,0,0,2.92-1.43,6.44,6.44,0,0,0,1-1.55c.28-.59.44-.94.49-1.08s.16-.49.31-1a5.63,5.63,0,0,0,.26-1.5,1,1,0,0,0-.59-1,2.67,2.67,0,0,0-1.21-.32A3.71,3.71,0,0,0,340.09,482.47Zm1.91,3.2c-.12.32-.74.57-1.25.57s-.91-.24-.71-.77a1.18,1.18,0,0,1,1.25-.67C342.24,484.8,342.12,485.35,342,485.67Z" fill="#2f2e41"/><path d="M467.83,388.58c.1,0,.16,0,.16.05a.17.17,0,0,1,.05.12,1.29,1.29,0,0,1,0,.49.72.72,0,0,1-.38.18,10.94,10.94,0,0,0-3.1.59,1.71,1.71,0,0,1-.36,0c-.23,0-.35-.06-.35-.13,0-.49,0-.78,0-1.16l.06-.88,0-.68-.06-.58c0-.16,0-.44-.05-.85a10.26,10.26,0,0,0-.17-1.77,6.87,6.87,0,0,1-1.76-.13l-.05-.42c0-.13.09-.2.36-.19.49,0,.84,0,1.08,0l.83,0,1.9-.06h.58l1.16,0c.11,0,.18.1.23.28,0,0,0,.06,0,.09a.2.2,0,0,1-.17.24c-.65.06-1.19.12-1.63.19s-.72.07-.72.21a2.94,2.94,0,0,0,0,.42c0,.12,0,.31,0,.55l0,.86a6,6,0,0,0,.06.91c0,.16,0,.32,0,.48s0,.33,0,.49l0,.94,1.74-.27A4.59,4.59,0,0,1,467.83,388.58Z" fill="#e1e1e2"/><path d="M459.33,383.47a2.09,2.09,0,0,1,.8.62,3.27,3.27,0,0,1,.58.92,7.68,7.68,0,0,1,.19,1.86,3.61,3.61,0,0,1-.57,2.48,2.4,2.4,0,0,1-1.06.64,7.51,7.51,0,0,1-1.93.22,3.38,3.38,0,0,1-2.16-.75,2.55,2.55,0,0,1-.64-1.28,11.7,11.7,0,0,1-.13-1.57,6.18,6.18,0,0,1,.15-1.65c.2-1,1.26-1.66,3-1.66A8.58,8.58,0,0,1,459.33,383.47Zm-.89,6a1.61,1.61,0,0,0,.81-.57,1.17,1.17,0,0,0,.25-.75c0-.31-.05-.73-.07-1.29l-.05-.94a1.48,1.48,0,0,0-.49-1.12c-.29-.22-.54-.41-.75-.59a1.52,1.52,0,0,0-1-.27,2.34,2.34,0,0,0-1.68.8,1.26,1.26,0,0,0-.3.91c0,.45.05.78.06,1s0,.68,0,1a4.53,4.53,0,0,0,.08.85,2,2,0,0,0,.4.87,1,1,0,0,0,.78.34l.5,0,.5,0A3,3,0,0,0,458.44,389.45Zm-2-2.81c0-.23.37-.41.74-.41s.73.17.74.56-.37.48-.71.48C456.51,387.27,456.44,386.88,456.43,386.64Z" fill="#e1e1e2"/><path d="M452.27,383.75a2.07,2.07,0,0,1,1,1.21,7,7,0,0,1,.22,1.65,13,13,0,0,1,0,1.57,2.81,2.81,0,0,1-.57,1.35,2.65,2.65,0,0,1-2.12.68c-1.7,0-2.48-.28-3-.86a3.65,3.65,0,0,1-.72-2.48,11.79,11.79,0,0,1,.09-1.62c.14-1.2,1.16-1.91,3-1.95A4.33,4.33,0,0,1,452.27,383.75Zm-.6,5.38a2.2,2.2,0,0,0,.43-.88,5.85,5.85,0,0,0,.12-1.62,8.12,8.12,0,0,0-.1-.88,2.64,2.64,0,0,0-.35-1,2,2,0,0,0-1.62-.83,1.67,1.67,0,0,0-1.7,1,3,3,0,0,0-.29,1.13c0,.42,0,.68,0,.78s0,.35.07.73a3.94,3.94,0,0,0,.25,1.09,1.19,1.19,0,0,0,.73.74,2.52,2.52,0,0,0,1,.23A1.93,1.93,0,0,0,451.67,389.13Zm-2.32-2.32c0-.23.37-.42.74-.42a.67.67,0,0,1,.74.56c0,.43-.37.49-.71.49C449.42,387.44,449.35,387,449.35,386.81Z" fill="#e1e1e2"/><path d="M394.68,389.21c.19-.89,1.6-1.75,2.26-2.09a1.92,1.92,0,0,0,1.09-1.29,1.12,1.12,0,0,1,.28-.61.8.8,0,0,1,.44-.28,4.82,4.82,0,0,1,.76-.1,1.08,1.08,0,0,1,.54.13c.14,0,.4.12.38.2a.66.66,0,0,1,0,.34c-.05.26-.18.58-.26.93-.14.66-2.1,1.65-2.57,2.12a1.3,1.3,0,0,0-.49.69.51.51,0,0,0,.26.56,2.53,2.53,0,0,0,1.22.32,3.29,3.29,0,0,0,.6-.06,8.78,8.78,0,0,0,1.27-.5c.2-.07.56.24,1,.5.06,0,.44.33.2.39a8.77,8.77,0,0,1-1.31.61,8.55,8.55,0,0,1-3.5.49C395.48,391.56,394.37,390.68,394.68,389.21Zm3.81-5.59a.34.34,0,0,1,0-.12,1.93,1.93,0,0,1,1.59-.73c.67,0,1.17.42,1.07.89a1.15,1.15,0,0,1-.06.17c-.27.5-1,.58-1.49.58C398.66,384.41,398.42,383.92,398.49,383.62Z" fill="#0071f2"/><path d="M539.36,453.58c1.81-.08,4,1.3,5,2a4.54,4.54,0,0,0,2.94.86,3.36,3.36,0,0,1,1.29.12,1.43,1.43,0,0,1,.74.44,4.67,4.67,0,0,1,.49.86.85.85,0,0,1,0,.7c0,.17-.07.52-.23.53a3.06,3.06,0,0,1-.66.1c-.53,0-1.2,0-1.91,0-1.35.06-4.06-1.95-5.15-2.34a3.57,3.57,0,0,0-1.54-.36,1.12,1.12,0,0,0-1,.52,2,2,0,0,0-.13,1.56,2.92,2.92,0,0,0,.36.7,11.64,11.64,0,0,0,1.48,1.34c.22.21-.23.75-.56,1.38-.05.08-.47.64-.68.38a11.58,11.58,0,0,1-1.71-1.36,8,8,0,0,1-2.37-4C535.13,455.34,536.39,453.7,539.36,453.58Zm12.41,2.61a1.06,1.06,0,0,1,.25,0,2.81,2.81,0,0,1,2.05,1.64c.27.8-.34,1.54-1.3,1.58h-.35a2.17,2.17,0,0,1-1.74-1.58A1.16,1.16,0,0,1,551.77,456.19Z" fill="#0071f2"/><g opacity="0.5"><path d="M539.36,453.58c1.81-.08,4,1.3,5,2a4.54,4.54,0,0,0,2.94.86,3.36,3.36,0,0,1,1.29.12,1.43,1.43,0,0,1,.74.44,4.67,4.67,0,0,1,.49.86.85.85,0,0,1,0,.7c0,.17-.07.52-.23.53a3.06,3.06,0,0,1-.66.1c-.53,0-1.2,0-1.91,0-1.35.06-4.06-1.95-5.15-2.34a3.57,3.57,0,0,0-1.54-.36,1.12,1.12,0,0,0-1,.52,2,2,0,0,0-.13,1.56,2.92,2.92,0,0,0,.36.7,11.64,11.64,0,0,0,1.48,1.34c.22.21-.23.75-.56,1.38-.05.08-.47.64-.68.38a11.58,11.58,0,0,1-1.71-1.36,8,8,0,0,1-2.37-4C535.13,455.34,536.39,453.7,539.36,453.58Zm12.41,2.61a1.06,1.06,0,0,1,.25,0,2.81,2.81,0,0,1,2.05,1.64c.27.8-.34,1.54-1.3,1.58h-.35a2.17,2.17,0,0,1-1.74-1.58A1.16,1.16,0,0,1,551.77,456.19Z" fill="#fff"/></g><polygon points="323.48 434.92 298.77 434.57 314.3 425.1 323.48 434.92" fill="#2f2e41"/><polygon points="527.06 400.06 519.37 405.22 528.32 411.24 536.01 406.08 527.06 400.06" fill="#0071f2"/><polygon points="527.06 400.06 519.37 405.22 528.32 411.24 536.01 406.08 527.06 400.06" fill="#fff" opacity="0.5"/><path d="M372.64,431.42c0,.3,0,1.39-.08,1.77a3.71,3.71,0,0,0,0,.51c0,.38,0,.82,0,.9v0c0,.1-.1.15-.28.14s-.51,0-.66,0-.1,0-.1-.06,0-.09,0-.16-.1-2.25-.1-2.73a18.37,18.37,0,0,1,.12-1.95,11,11,0,0,0,.13-1.23v0c0-.17.12-.15.26-.14h.67c.23,0,.37.09.41.26a3.21,3.21,0,0,0,.63,1.07c.26.35,1.79,2.1,2.17,2.49.19.2.47.57.72.9l.44.61.27-.21.57-.49c.42-.38,2-1.65,2.48-2.15s1.26-1.19,1.52-1.48.73-1,1-1c.12,0,.16.08.16.21a7.54,7.54,0,0,1-.12.75,17,17,0,0,0-.06,1.72c0,.41,0,1.67-.1,2l0,1.45v0c0,.06-.08.09-.23.09h-.71c-.08,0-.1,0-.1-.07s0-.09,0-.15.06-2,.14-2.42c0-.21,0-.59,0-.9a5.52,5.52,0,0,0,0-.57l-.51.41c-.3.22-.57.49-.79.66-.39.33-1.5,1.35-1.83,1.64s-1.46,1.25-1.63,1.38a1,1,0,0,1-.59.3c-.22,0-.22-.07-.32-.2s-.81-1-1.08-1.31a14.6,14.6,0,0,1-1.32-1.5c-.14-.17-.39-.52-.63-.85l-.45-.59,0,.33C372.64,431,372.64,431.27,372.64,431.42Z" fill="#0071f2"/><path d="M388.86,428.31a.22.22,0,0,1,.28-.06c.15,0,.19.14.27.25a13.69,13.69,0,0,0,1.08,1.07,8.93,8.93,0,0,1,.87.95c.26.35,1.3,1.27,1.73,1.7s1.46,1.28,1.75,1.52a7,7,0,0,0,1,.81c.06.05.1.09.1.11s-.18.07-.36.07h-1.47c-.16,0-.26-.16-.4-.29a11,11,0,0,1-.8-.92,6,6,0,0,0-.5-.51.39.39,0,0,0-.37-.18l-.81,0c-.33,0-1.61,0-2.18,0h-1.73c-.18,0-.2.1-.26.2s-.37.65-.43.82l-.22.39-.16.26c-.09.13-.13.16-.27.16h-1.2c-.08,0-.1,0-.1,0s0-.07.08-.13a1.44,1.44,0,0,0,.29-.34,14,14,0,0,0,.89-1.44,5.27,5.27,0,0,1,.75-1.16c.17-.29.27-.43.53-.85s.55-.85.77-1.17l.51-.72A4.9,4.9,0,0,1,388.86,428.31Zm2.07,3.24s0,0-.06-.07a10.72,10.72,0,0,1-1-1c-.27-.28-.43-.51-.49-.55s-.16-.19-.27-.19-.14.17-.24.34-.43.62-.53.79a4.66,4.66,0,0,1-.45.58.33.33,0,0,0-.06.15s0,.05.19.05,2.07,0,2.42,0S390.93,431.6,390.93,431.55Z" fill="#0071f2"/><path d="M397.72,434.72h-.25c-.1,0-.14,0-.14-.06a.41.41,0,0,1,.08-.13c.06-.11-.1-.39-.1-.59s.1-2.56.18-2.8a5.07,5.07,0,0,0,.06-.89,2.31,2.31,0,0,0,0-.42,1.9,1.9,0,0,1,0-.38,2.5,2.5,0,0,1,.11-.87c0-.08.12-.09.22-.09l.41,0c.46,0,1,0,1.5,0h.12c.33,0,.27.09.27.18a4.5,4.5,0,0,0,0,.53v.37a6.79,6.79,0,0,1-.08,1.33,1.55,1.55,0,0,0,0,.31c0,.11,0,.2,0,.29l0,.31.32-.15c.18-.1.41-.19.59-.27.37-.14,1.63-.75,1.91-.9s1.32-.66,1.89-.91,1.77-.83,1.91-.93a.85.85,0,0,1,.43-.16h.57c.1,0,.14,0,.14.07s-.06.06-.1.08-.95.43-1.28.55-2.16,1.12-2.36,1.25-.71.35-1.28.61l-1.1.5.71.37c.39.2.84.42,1.08.52.49.22,2.28,1.21,2.67,1.35s1.32.69,1.5.77.06.05.06.07-.14.07-.34.07l-2.63,0a1.64,1.64,0,0,1-.79-.16c-.26-.1-1.67-1-2.09-1.16a11.52,11.52,0,0,1-1.08-.53l-.73-.37a2.42,2.42,0,0,1,0,.39c0,.2,0,.45,0,.57s0,.39,0,.62a1.08,1.08,0,0,0,.07.43.07.07,0,0,1,0,.06c0,.09-.15.09-.29.09H399Z" fill="#0071f2"/><path d="M410.09,431.27c0-.69-.1-.75-.1-1.29s0-1.06.06-1.31.16-.2.39-.2h.3c.31,0,.67,0,1.59,0s2.26-.07,3.05-.07,1.87,0,2.26,0,.42.08.42.25.08.4.08.68a.79.79,0,0,1-.06.33c0,.11-.14.14-.28.14s-.33,0-.45-.05c-.3,0-.91,0-1.77,0h-2.09l-1.08,0h-1.08c-.22,0-.2.05-.2.18s-.06.55-.06.86v.53a1.37,1.37,0,0,0,0,.28h2c.75,0,1.67,0,2.16,0l1,0c.23,0,.27.05.27.11a1.57,1.57,0,0,0,0,.28c0,.17,0,.25,0,.47s-.06.14-.19.14l-.36,0c-.33,0-.75,0-2,0s-2.17.07-2.39.07h-.39v.9h3.19l2.56,0h.86c.34,0,.4.08.4.19s0,.12,0,.17,0,.37,0,.63-.32.2-1,.2l-3.58,0-3.21,0h-.13c-.18,0-.16-.07-.16-.15a1.77,1.77,0,0,1,0-.33c0-.11,0-.2,0-.38v-1.23C410,432.12,410.09,432,410.09,431.27Z" fill="#0071f2"/><path d="M427.89,431.42c0,.3,0,1.39-.08,1.77a3.71,3.71,0,0,0,0,.51c0,.38,0,.82,0,.9v0c0,.1-.1.15-.28.14s-.51,0-.65,0-.1,0-.1-.06,0-.09,0-.16-.11-2.25-.11-2.73a18.18,18.18,0,0,1,.13-1.95,10.75,10.75,0,0,0,.12-1.23v0c0-.17.12-.15.26-.14h.67c.23,0,.37.09.41.26a3.39,3.39,0,0,0,.63,1.07c.27.35,1.79,2.1,2.18,2.49.18.2.46.57.71.9l.45.61.26-.21.57-.49c.43-.38,2-1.65,2.48-2.15s1.26-1.19,1.52-1.48.74-1,1-1c.12,0,.16.08.16.21a7.54,7.54,0,0,1-.12.75,17,17,0,0,0-.06,1.72c0,.41,0,1.67-.1,2l0,1.45v0c0,.06-.08.09-.22.09H437c-.08,0-.1,0-.1-.07s0-.09,0-.15.06-2,.14-2.42a8.06,8.06,0,0,0,0-.9,3.69,3.69,0,0,0,0-.57c-.18.14-.36.28-.5.41-.31.22-.57.49-.8.66-.38.33-1.5,1.35-1.83,1.64s-1.46,1.25-1.62,1.38a1.08,1.08,0,0,1-.59.3c-.23,0-.23-.07-.33-.2s-.81-1-1.08-1.31A15.9,15.9,0,0,1,429,432c-.14-.17-.38-.52-.63-.85s-.3-.39-.44-.59l0,.33C427.89,431,427.89,431.27,427.89,431.42Z" fill="#0071f2"/><path d="M451.63,431.54c0,.61-.38,3.28-5.85,3.28-2.75,0-4.09-.85-4.8-1.72a3.16,3.16,0,0,1-.71-1.74c0-1.6,2.6-3.06,5.26-3.06a11.07,11.07,0,0,1,2.81.19C451,429.28,451.63,431.07,451.63,431.54Zm-1.68,0c0-1.45-1.57-2.71-4-2.71a4.07,4.07,0,0,0-1.89.25c-.59.26-2.5,1-2.5,2.38s1.08,2.86,4.11,2.86S450,433,450,431.54Z" fill="#0071f2"/><path d="M457.85,431.59c0,.62.08,1.9.08,2.17s.08.71.08.86v0c0,.12-.18.14-.39.14s-.87,0-1.36,0l-2,0c-.55,0-.51-.13-.57-.25a.75.75,0,0,1-.08-.39,2.62,2.62,0,0,1,0-.37,12.09,12.09,0,0,1,.14-2c.06-.43.35-2,.35-2.31a6.11,6.11,0,0,1,.06-1.05c0-.21.3-.24.57-.24H457c.58,0,.83.05,1,.18s.77.75,1.26,1.2,1.77,1.73,2.26,2.15c.24.23.67.57,1,.88l.63.55-.05-.52-.08-.88v-.27c0-.38,0-.74,0-1s0-.95,0-1.28l.08-.86c0-.11.15-.14.31-.14s.3,0,.41,0a4.8,4.8,0,0,0,.71,0c.22,0,.26,0,.26.08a1.27,1.27,0,0,0,0,.18c0,.17-.06,2.11-.06,2.57,0,.08,0,.16,0,.26,0,.52.12,1.27.12,1.61s.1,1.39.1,1.56v0c0,.16-.2.17-.38.16h-.25c-.24,0-.52,0-.69,0a.6.6,0,0,1-.47-.18c-.16-.16-1.28-1.39-1.66-1.75s-1.83-1.73-2.26-2.15c-.22-.21-.59-.52-.91-.78l-.59-.47.06.85C457.81,430.75,457.85,431.28,457.85,431.59Z" fill="#0071f2"/><path d="M467.6,431.27c0-.69-.1-.75-.1-1.29s0-1.06.06-1.31.16-.2.39-.2h.3c.31,0,.67,0,1.59,0s2.25-.07,3.05-.07,1.87,0,2.25,0,.43.08.43.25.08.4.08.68a.79.79,0,0,1-.06.33c0,.11-.14.14-.28.14s-.33,0-.45-.05c-.31,0-.92,0-1.77,0H471l-1.08,0h-1.08c-.22,0-.2.05-.2.18s-.06.55-.06.86v.53a1.37,1.37,0,0,0,0,.28h2c.75,0,1.67,0,2.15,0l1,0c.22,0,.27.05.27.11a1.29,1.29,0,0,0-.05.28c0,.17,0,.25,0,.47s-.06.14-.18.14l-.36,0c-.33,0-.76,0-2,0s-2.17.07-2.4.07h-.38v.9h3.19l2.56,0h.86c.34,0,.4.08.4.19s0,.12,0,.17,0,.37,0,.63-.32.2-1,.2l-3.57,0-3.22,0h-.12c-.18,0-.16-.07-.16-.15a1.77,1.77,0,0,1,0-.33c0-.11,0-.2,0-.38v-1.23C467.46,432.12,467.6,432,467.6,431.27Z" fill="#0071f2"/><path d="M481,430.66a7,7,0,0,1,.57.68c.1.13.23.28.33.43l.16-.23.3-.38c.17-.22.94-1.13,1.14-1.31a9.18,9.18,0,0,0,.74-1c.16-.31.5-.26.77-.26h1.1l.87,0c.33,0,.43,0,.43.09s0,0,0,.08-.51.69-.84,1-1.42,1.6-1.75,2-1.8,2-1.89,2.12a3.78,3.78,0,0,0-.3.66.29.29,0,0,1-.33.17h-2.8c-.21,0-.27,0-.27-.05s.06-.06.08-.1l.74-.87a7.3,7.3,0,0,1,.53-.66c.14-.15.3-.24.2-.34s-.39-.55-.61-.78-.37-.52-.59-.8-1.4-1.77-1.57-2-.38-.38-.38-.47.3-.11.61-.12.67,0,1,0,.21.09.29.19l.51.74A13.68,13.68,0,0,0,481,430.66Z" fill="#0071f2"/><polygon points="508.23 456.17 511.49 468.17 489.8 468.17 489.99 469.7 515.77 469.7 512.11 456.17 508.23 456.17" fill="#0071f2"/><polygon points="493.68 402.39 495.93 410.72 499.8 410.72 497.13 400.86 481.18 400.86 481.38 402.39 493.68 402.39" fill="#0071f2"/><polygon points="357.4 410.18 361.41 402.39 372.65 402.39 373.26 400.86 358.71 400.86 353.9 410.18 357.4 410.18" fill="#0071f2"/><polygon points="333.3 456.95 329.81 456.95 323.24 469.7 345.97 469.7 346.57 468.17 327.52 468.17 333.3 456.95" fill="#0071f2"/><path d="M565.06,391.57c0-1.67-2.88-3-6.43-3s-6.43,1.36-6.43,3,2.88,3,6.43,3S565.06,393.25,565.06,391.57Z" fill="#9ea0a3"/><ellipse cx="239.01" cy="467.2" rx="7.15" ry="4.55" fill="#9ea0a3"/><rect x="329.48" y="378.57" width="9.54" height="7.15" fill="#fff"/><path d="M332.94,385.51a1.48,1.48,0,1,0-1.46,1.73A1.62,1.62,0,0,0,332.94,385.51Z" fill="#fff"/><path d="M337.82,385.51a1.49,1.49,0,1,0-1.46,1.73A1.62,1.62,0,0,0,337.82,385.51Z" fill="#fff"/><polygon points="299.78 448.57 296.53 448.57 293.39 461.14 302.93 461.14 299.78 448.57" fill="#fff"/><polygon points="433.9 451.28 432.34 443.49 424.96 445 426.51 452.79 433.9 451.28" fill="#0071f2"/><path d="M428.57,448.21a.75.75,0,0,0,.75.74.74.74,0,0,0,.74-.74.75.75,0,0,0-.74-.75A.76.76,0,0,0,428.57,448.21Z" fill="#fff8db"/><polygon points="439.14 456.73 434.44 455.01 430.33 457.47 435.03 459.19 439.14 456.73" fill="#e1e1e2"/><polygon points="425.07 459.75 418.42 457.32 412.61 460.8 419.25 463.24 425.07 459.75" fill="#e1e1e2"/><rect x="410.69" y="450.75" width="7.96" height="7.54" transform="translate(294.56 -148.9) rotate(31.12)" fill="#0071f2"/><path d="M416.45,454.17a.75.75,0,0,0,1.47-.26.73.73,0,0,0-.86-.6A.75.75,0,0,0,416.45,454.17Z" fill="#fff8db"/><path d="M411.4,455.08a.75.75,0,0,0,1.47-.26.75.75,0,1,0-1.47.26Z" fill="#fff8db"/><path d="M413.93,454.52a.75.75,0,0,0,.86.6.75.75,0,1,0-.86-.6Z" fill="#fff8db"/></svg>